<?xml version="1.0" standalone="no"?>
<!DOCTYPE svg PUBLIC "-//W3C//DTD SVG 20010904//EN"
 "http://www.w3.org/TR/2001/REC-SVG-20010904/DTD/svg10.dtd">
<svg version="1.0" xmlns="http://www.w3.org/2000/svg"
 width="373.000000pt" height="373.000000pt" viewBox="0 0 373.000000 373.000000"
 preserveAspectRatio="xMidYMid meet">
<metadata>
Created by potrace 1.11, written by Peter Selinger 2001-2013
</metadata>
<g transform="translate(0.000000,373.000000) scale(0.100000,-0.100000)"
fill="#000000" stroke="none">
<path d="M1950 3509 c-20 -10 -56 -18 -84 -19 -48 0 -76 -7 -161 -37 -49 -18
-144 -92 -145 -114 0 -8 -16 -30 -35 -49 -21 -20 -35 -44 -35 -58 0 -25 -8
-34 -87 -99 -42 -35 -73 -82 -73 -111 0 -8 -11 -30 -25 -48 -14 -18 -25 -36
-25 -40 0 -16 -57 -70 -71 -66 -10 4 -9 0 3 -15 24 -26 23 -40 -6 -78 -16 -20
-27 -52 -31 -91 -4 -32 -14 -71 -21 -86 -8 -15 -14 -38 -14 -53 0 -18 -5 -25
-20 -25 -17 0 -20 -7 -20 -39 0 -22 -4 -43 -10 -46 -5 -3 -10 -19 -10 -36 0
-16 -4 -29 -9 -29 -9 0 -81 -141 -81 -158 0 -6 -13 -39 -30 -74 -16 -34 -30
-72 -30 -83 0 -12 -13 -36 -30 -55 -16 -19 -29 -40 -30 -46 0 -19 -31 -74 -41
-74 -16 0 -10 -29 11 -50 19 -19 19 -25 9 -60 -7 -22 -17 -40 -23 -40 -11 0
-26 -42 -42 -115 -4 -16 -11 -36 -17 -42 -5 -7 -11 -34 -12 -59 -2 -28 -11
-55 -23 -68 -29 -31 -53 -87 -47 -107 3 -9 -5 -29 -18 -45 -13 -16 -31 -43
-40 -60 -8 -16 -32 -39 -51 -49 -32 -18 -35 -23 -30 -51 5 -26 2 -32 -16 -37
-20 -5 -21 -9 -14 -84 4 -43 11 -79 15 -81 5 -2 9 -37 9 -78 0 -77 20 -132 60
-169 11 -10 20 -30 20 -46 0 -20 14 -40 50 -75 27 -26 50 -56 50 -65 0 -23 88
-108 120 -116 14 -3 38 -19 53 -34 26 -25 80 -49 113 -49 6 0 17 -6 23 -14 20
-24 124 -74 197 -95 38 -11 97 -31 131 -43 52 -19 66 -21 80 -10 10 7 25 15
33 18 9 3 20 15 25 27 14 31 43 33 56 5 17 -39 101 -52 283 -44 177 8 236 18
248 41 7 11 17 15 33 11 13 -3 27 -2 30 4 3 5 19 10 35 10 16 0 32 5 35 10 3
6 26 10 50 10 56 0 75 8 75 31 0 14 13 21 60 31 33 6 60 16 60 20 0 4 6 8 14
8 20 0 128 59 171 94 19 15 35 37 35 47 0 23 27 36 41 22 17 -17 105 33 128
73 11 19 27 37 36 40 8 3 23 20 34 38 11 18 30 43 41 56 11 13 31 40 42 60 12
19 26 38 32 42 5 3 9 27 8 52 0 36 4 49 19 57 16 8 18 17 13 44 -3 18 2 72 11
120 13 63 16 109 11 168 -3 45 -9 144 -13 221 -5 117 -9 142 -24 157 -11 11
-19 33 -19 52 0 18 -4 37 -9 43 -5 5 -11 20 -13 34 -2 16 -9 24 -18 21 -58
-15 -52 -24 -93 146 -55 225 -63 268 -87 453 -6 47 -16 117 -22 155 -6 39 -11
117 -10 175 0 57 -3 107 -8 110 -12 7 -40 115 -40 152 0 15 -4 30 -10 33 -19
12 -10 45 16 57 25 12 25 12 5 20 -12 4 -21 16 -21 28 0 11 -4 20 -10 20 -15
0 -80 69 -80 86 0 8 -13 26 -29 39 -15 14 -34 37 -40 53 -8 18 -23 31 -44 38
-22 6 -33 16 -35 32 -3 19 1 22 32 22 55 0 85 -18 92 -56 6 -32 34 -70 34 -45
0 6 9 11 20 11 11 0 20 5 20 10 0 6 -7 10 -15 10 -8 0 -15 5 -15 10 0 6 -10
26 -22 45 -21 31 -26 34 -56 29 -42 -8 -142 40 -142 68 0 11 -16 25 -45 38
-40 18 -62 20 -218 18 -95 -1 -178 1 -183 4 -5 3 -25 -2 -44 -13z m227 -40 c7
-7 27 -9 55 -5 23 4 63 8 88 9 38 2 45 -1 48 -18 4 -38 -12 -49 -47 -30 -19
10 -37 13 -44 8 -18 -13 -103 -8 -121 6 -11 9 -20 10 -35 2 -26 -15 -41 -14
-41 2 0 25 77 46 97 26z m-566 -230 c-26 -24 -35 -28 -47 -18 -22 18 -17 28
19 38 55 16 61 12 28 -20z m286 -150 c41 -15 80 -55 130 -132 35 -54 48 -67
61 -61 54 23 214 73 254 78 38 6 60 2 125 -24 79 -30 119 -58 161 -114 23 -30
29 -85 12 -102 -5 -5 -25 -65 -45 -134 -42 -145 -78 -225 -108 -242 -12 -6
-50 -12 -84 -12 -61 0 -63 -1 -63 -25 0 -21 8 -29 45 -44 45 -19 105 -76 105
-101 0 -7 -25 -39 -55 -72 l-54 -59 47 -6 c26 -4 56 -5 67 -3 54 11 137 -53
182 -139 l15 -30 -48 7 c-27 3 -64 17 -84 30 -20 13 -68 31 -106 41 -67 16
-72 16 -124 -3 -30 -11 -77 -28 -105 -37 -27 -10 -63 -24 -78 -31 -33 -16
-100 -18 -127 -4 -15 8 -19 21 -19 68 1 57 2 59 32 70 18 6 55 31 82 56 l50
44 -27 21 c-36 29 -92 100 -84 108 3 4 17 0 31 -7 20 -10 28 -11 37 -2 7 7 19
12 28 12 23 0 53 35 48 56 -2 10 -17 21 -34 26 -23 6 -35 18 -47 45 -41 98
-75 179 -79 193 -8 25 -38 -45 -38 -88 0 -25 -15 -71 -40 -125 -40 -84 -40
-86 -40 -203 0 -66 6 -153 12 -194 16 -114 16 -134 -5 -138 -10 -2 -29 4 -42
12 -30 20 -75 105 -75 141 0 14 -5 46 -11 71 -11 41 -13 44 -29 29 -9 -8 -24
-15 -32 -15 -8 0 -26 -16 -39 -35 -24 -35 -57 -52 -82 -42 -8 3 -24 33 -37 66
-20 55 -21 63 -7 79 45 51 229 472 207 472 -5 0 -33 -25 -62 -55 -29 -31 -59
-54 -68 -53 -8 2 -29 -7 -47 -20 -33 -23 -68 -29 -78 -12 -7 11 51 115 125
225 l47 70 -67 0 c-57 0 -72 4 -102 27 -36 28 -88 116 -88 150 0 26 27 22 46
-7 28 -42 44 -46 135 -29 46 8 107 14 135 13 60 -3 66 1 105 53 31 44 37 68
16 68 -7 0 -29 11 -49 25 -20 14 -47 25 -60 25 l-23 1 25 14 c30 17 88 19 127
4z m-491 -63 c7 -29 -11 -66 -31 -66 -19 0 -20 42 -3 70 17 26 26 25 34 -4z
m1163 -1322 c41 -24 77 -74 61 -84 -6 -4 -71 -10 -144 -12 -127 -5 -136 -7
-197 -39 -63 -34 -64 -34 -61 -73 2 -28 -4 -53 -21 -85 -14 -25 -37 -91 -52
-145 -23 -85 -27 -120 -28 -240 0 -141 15 -246 36 -246 6 0 39 10 75 22 46 15
60 24 49 30 -9 4 -25 24 -38 44 -21 35 -22 42 -16 227 6 224 19 279 73 302 27
11 104 96 104 114 0 11 -15 28 -35 39 -17 10 -14 11 23 12 57 0 95 -23 121
-75 25 -51 27 -102 4 -127 -13 -15 -32 -18 -106 -18 -88 0 -89 0 -83 -22 3
-13 6 -42 6 -65 l0 -41 49 18 c70 27 175 43 228 35 54 -8 102 -47 84 -69 -23
-28 -69 -39 -101 -26 -17 7 -33 10 -36 7 -3 -3 4 -24 16 -47 42 -82 39 -186
-7 -240 -14 -17 -24 -32 -22 -34 13 -9 118 -25 136 -20 45 12 169 -92 148
-126 -8 -13 -62 -13 -70 0 -3 6 -33 10 -66 10 -33 0 -59 4 -59 10 0 24 -188 2
-255 -30 -66 -31 -113 -34 -168 -11 -59 26 -57 26 -57 1 0 -21 -33 -29 -45
-10 -3 6 -15 10 -25 10 -72 0 -100 260 -59 540 12 79 48 213 72 272 l15 36
-38 17 c-21 9 -48 31 -60 47 l-23 31 29 -6 c18 -3 53 4 94 20 181 69 377 90
449 47z m-1253 -50 c89 -25 154 -126 138 -214 -6 -32 1 -40 58 -67 33 -16 49
-30 54 -48 10 -40 -1 -53 -51 -60 -54 -9 -61 -19 -74 -107 -5 -35 -13 -77 -16
-94 -9 -39 1 -46 93 -74 82 -24 138 -52 227 -115 110 -78 195 -165 195 -200 0
-9 -91 -5 -111 6 -11 6 -44 17 -72 24 -107 28 -227 78 -290 120 l-66 44 -5
-42 c-18 -159 -27 -307 -21 -372 l7 -75 -24 0 c-18 0 -33 12 -54 42 -25 35
-31 57 -41 152 -6 61 -12 144 -12 184 l-1 74 -42 -36 c-23 -20 -46 -36 -52
-36 -6 0 -61 -49 -121 -110 -60 -60 -117 -110 -126 -110 -22 0 -34 68 -15 90
8 8 26 39 40 67 14 29 69 117 121 194 122 181 129 193 81 152 -42 -38 -71 -41
-159 -18 -32 8 -74 15 -93 15 -40 0 -122 19 -129 30 -2 3 26 17 63 30 37 13
90 40 117 60 98 71 339 200 372 200 11 0 13 22 11 103 l-3 102 -65 6 c-36 4
-78 11 -93 18 -16 6 -39 11 -53 11 -13 0 -24 3 -24 8 1 12 24 38 45 50 29 16
128 15 191 -4z"/>
<path d="M2408 2859 c-72 -10 -102 -25 -94 -47 29 -90 29 -90 68 -96 20 -3 41
-13 46 -22 6 -11 14 5 30 59 23 80 26 104 15 110 -5 2 -34 0 -65 -4z"/>
<path d="M1998 2823 c-25 -30 -28 -39 -18 -72 8 -30 -9 -108 -31 -136 -4 -5
-10 -27 -14 -49 l-8 -38 40 43 c51 56 55 70 41 124 -9 32 -9 56 -1 92 13 55
12 60 -9 36z"/>
<path d="M2127 2791 c7 -9 9 -33 6 -67 l-6 -53 39 10 c53 15 66 27 62 62 -3
27 -7 30 -43 34 -21 2 -46 9 -55 16 -12 9 -13 9 -3 -2z"/>
<path d="M2378 2637 c-26 -10 -28 -15 -28 -70 0 -70 12 -68 46 10 34 77 33 81
-18 60z"/>
<path d="M2139 2584 c8 -48 24 -53 50 -16 l21 30 -24 6 c-13 3 -31 8 -39 11
-11 5 -13 -1 -8 -31z"/>
<path d="M2188 2528 c-22 -34 -23 -48 -3 -48 19 0 28 20 23 51 -3 23 -3 23
-20 -3z"/>
<path d="M2431 1134 c-24 -13 -55 -24 -71 -24 -25 0 -28 -4 -34 -46 -9 -67 -8
-113 5 -177 11 -53 14 -57 40 -57 23 0 69 14 88 26 1 2 9 36 17 76 15 80 19
214 6 222 -5 3 -27 -6 -51 -20z"/>
<path d="M2780 3080 c0 -5 5 -10 11 -10 5 0 7 5 4 10 -3 6 -8 10 -11 10 -2 0
-4 -4 -4 -10z"/>
<path d="M2810 2946 c0 -10 9 -16 21 -16 24 0 21 23 -4 28 -10 2 -17 -3 -17
-12z"/>
</g>
</svg>
